<svg id="Camada_1" data-name="Camada 1" xmlns="http://www.w3.org/2000/svg" viewBox="0 0 1480.91 142.53"><defs><style>.cls-1{fill:#fff;}</style></defs><path class="cls-1" d="M359.37,595.57q0,4-4.23,4H332.41q-4.25,0-4.24-4V544.14H251.9v51.43q0,4-4.43,4H224.94q-4.24,0-4.24-4V468.83q0-4,4.24-4h22.53q4.42,0,4.43,4v50.08h76.27V468.83q0-4,4.24-4h22.73q4.23,0,4.23,4Z" transform="translate(-220.7 -457.08)"/><path class="cls-1" d="M491.5,572.07q0,14.45-6.74,21t-22,6.55H412.72q-15,0-21.86-6.55t-6.83-21V525.84q0-14.44,6.83-21t21.86-6.55H462.8q15.21,0,22,6.55t6.74,21Zm-28.31-38.91a31.81,31.81,0,0,0-.49-6.07,6.28,6.28,0,0,0-1.92-3.65,8.58,8.58,0,0,0-4.24-1.74,44.1,44.1,0,0,0-7.22-.48H426.4a43.85,43.85,0,0,0-7.32.48,9.14,9.14,0,0,0-4.24,1.74,6,6,0,0,0-2,3.65,31.91,31.91,0,0,0-.48,6.07v31.59a31.49,31.49,0,0,0,.48,6.16,5.94,5.94,0,0,0,2,3.56,9.14,9.14,0,0,0,4.24,1.74,43.85,43.85,0,0,0,7.32.48h22.92a44.1,44.1,0,0,0,7.22-.48,8.58,8.58,0,0,0,4.24-1.74,6.21,6.21,0,0,0,1.92-3.56,31.38,31.38,0,0,0,.49-6.16Z" transform="translate(-220.7 -457.08)"/><path class="cls-1" d="M582,533.16a31.91,31.91,0,0,0-.48-6.07,6.05,6.05,0,0,0-2-3.65,9.14,9.14,0,0,0-4.24-1.74,43.85,43.85,0,0,0-7.32-.48h-6.74q-9.63,0-13.67,3.85t-4,11.94V596q0,3.66-3.85,3.66H519.23q-4,0-4-3.66V502q0-3.66,4-3.66h17.15q4,0,4,3.66v13.87q5-17.54,27.93-17.53h11q12.13,0,18.87,4.33t8.86,13.78q5-18.11,28.12-18.11h13.1q15,0,22,6.55t6.94,21V596q0,3.66-4,3.66H652.71q-4.05,0-4.05-3.66V533.16a31.91,31.91,0,0,0-.48-6.07,6.28,6.28,0,0,0-1.92-3.65A8.62,8.62,0,0,0,642,521.7a44.1,44.1,0,0,0-7.22-.48h-6.75q-9.63,0-13.67,3.85t-4,11.94V596q0,3.66-3.85,3.66H586.07q-4.05,0-4.05-3.66Z" transform="translate(-220.7 -457.08)"/><path class="cls-1" d="M728.21,599.61q-15,0-21.87-6.55t-6.83-21V525.84q0-14.44,6.83-21t21.87-6.55H777.9q14.25,0,20.7,6.16t6.45,19.65v30c0,2.44-1.34,3.65-4,3.65H727.82v7.13a31.49,31.49,0,0,0,.48,6.16,6,6,0,0,0,2,3.57,9.24,9.24,0,0,0,4.24,1.73,43.85,43.85,0,0,0,7.32.48h28.7a8.85,8.85,0,0,0,5.2-1.25q1.72-1.25,1.73-4.53,0-3.65,3.85-3.65H801c2.7,0,4,1.22,4,3.65v2.7q0,13.68-6.35,19.74t-20.61,6.07Zm-.39-60.48h49.31V528c0-2.57-.68-4.36-2-5.39a9.51,9.51,0,0,0-5.87-1.54H741.88a43.85,43.85,0,0,0-7.32.48,9.24,9.24,0,0,0-4.24,1.73,6.06,6.06,0,0,0-2,3.66,31.91,31.91,0,0,0-.48,6.07Z" transform="translate(-220.7 -457.08)"/><path class="cls-1" d="M906.36,582.08q-5.19,17.53-27.92,17.53h-23.7q-15,0-21.86-6.55t-6.83-21V525.84q0-14.44,6.83-21t21.86-6.55h22.35q19.24,0,26,12.71V460.74q0-3.66,4-3.66h20.42c2.7,0,4,1.22,4,3.66V596c0,2.44-1.34,3.66-4,3.66H910.21q-3.86,0-3.85-3.66Zm-37.94-60.86a43.85,43.85,0,0,0-7.32.48,9.14,9.14,0,0,0-4.24,1.74,6,6,0,0,0-2,3.65,31.91,31.91,0,0,0-.48,6.07v31.59a31.49,31.49,0,0,0,.48,6.16,5.94,5.94,0,0,0,2,3.56,9.14,9.14,0,0,0,4.24,1.74,43.85,43.85,0,0,0,7.32.48h17.14q9.63,0,13.58-3.85t4-11.94V537q0-8.09-4-11.94t-13.58-3.85Z" transform="translate(-220.7 -457.08)"/><path class="cls-1" d="M984.75,564.75a31.49,31.49,0,0,0,.48,6.16,5.94,5.94,0,0,0,2,3.56,9.23,9.23,0,0,0,4.34,1.74,44,44,0,0,0,7.22.48h14.64q9.63,0,13.67-3.85t4.05-11.94V502q0-3.66,3.85-3.66h20.61q3.66,0,3.66,3.66v94q0,3.66-3.66,3.66h-17.34q-4,0-4-3.66V582.08q-5.2,17.53-27.93,17.53h-21q-15,0-22-6.55t-6.93-21V502q0-3.66,3.85-3.66H980.9c2.56,0,3.85,1.22,3.85,3.66Z" transform="translate(-220.7 -457.08)"/><path class="cls-1" d="M1161,566.48q0-3.66,3.85-3.66h19.65q4,0,4,3.66v7.32q0,13.68-6.35,19.74t-20.61,6.07h-49.89q-15,0-21.86-6.55t-6.83-21V525.84q0-14.44,6.83-21t21.86-6.55h49.89q14.25,0,20.61,6.07t6.35,19.74v7.32q0,3.66-4,3.66h-19.65q-3.86,0-3.85-3.66v-3.66q0-6.54-7.7-6.55h-27.93a43.85,43.85,0,0,0-7.32.48,9.14,9.14,0,0,0-4.24,1.74,6,6,0,0,0-2,3.65,31.91,31.91,0,0,0-.48,6.07v31.59a31.49,31.49,0,0,0,.48,6.16,5.94,5.94,0,0,0,2,3.56,9.14,9.14,0,0,0,4.24,1.74,43.85,43.85,0,0,0,7.32.48h27.93q7.7,0,7.7-6.55Z" transform="translate(-220.7 -457.08)"/><path class="cls-1" d="M1232.05,599.61q-14.25,0-20.42-5.78T1205.47,574v-9a44.53,44.53,0,0,1,1.45-12.42,16.48,16.48,0,0,1,4.62-7.8,18.6,18.6,0,0,1,8.28-4.14,51.66,51.66,0,0,1,12.23-1.25h49.31V533a32.75,32.75,0,0,0-.48-6.07,6.12,6.12,0,0,0-2-3.66,9.34,9.34,0,0,0-4.33-1.73,44.1,44.1,0,0,0-7.22-.48h-24.08a8.43,8.43,0,0,0-5.1,1.25c-1.09.84-1.64,2.34-1.64,4.53q0,3.86-4,3.85h-19.65c-2.7,0-4-1.28-4-3.85v-2.7q0-13.68,6.35-19.74t20.61-6.07H1281q15,0,21.86,6.55t6.84,21v46.81q0,4,4.24,4h1.15q3.86,0,3.85,3.66V596q0,3.66-3.85,3.66h-13.29q-9.63,0-13.87-4.24t-4.23-12.13q-5.78,16.37-27.74,16.37Zm31.59-22.73q9.63,0,13.67-3.85t4-11.94V558h-39.68a9.51,9.51,0,0,0-5.87,1.54c-1.35,1-2,2.82-2,5.39v5q0,3.85,1.93,5.39t6,1.54Z" transform="translate(-220.7 -457.08)"/><path class="cls-1" d="M1368.8,521.22v46.61c0,3.47.57,5.81,1.73,7s3.4,1.83,6.74,1.83h14.83q3.86,0,3.85,3.66V596q0,3.66-3.85,3.66h-23.88q-14.64,0-21.19-6.26T1340.48,573V521.22h-9.63q-3.86,0-3.85-3.66V502q0-3.66,3.85-3.66h9.63V476.15q0-3.66,3.86-3.66h20.41q4.05,0,4,3.66V498.3h23.3q3.86,0,3.85,3.66v15.6q0,3.66-3.85,3.66Z" transform="translate(-220.7 -457.08)"/><path class="cls-1" d="M1415.41,463.25c0-2.44,1.34-3.66,4-3.66h20.42c2.56,0,3.85,1.22,3.85,3.66V479c0,2.44-1.29,3.66-3.85,3.66h-20.42c-2.7,0-4-1.22-4-3.66Zm0,38.71c0-2.44,1.34-3.66,4-3.66h20.42c2.56,0,3.85,1.22,3.85,3.66v94c0,2.44-1.29,3.66-3.85,3.66h-20.42c-2.7,0-4-1.22-4-3.66Z" transform="translate(-220.7 -457.08)"/><path class="cls-1" d="M1575.07,572.07q0,14.45-6.74,21t-21.95,6.55H1496.3q-15,0-21.86-6.55t-6.84-21V525.84q0-14.44,6.84-21t21.86-6.55h50.08q15.21,0,21.95,6.55t6.74,21Zm-28.31-38.91a31.91,31.91,0,0,0-.48-6.07,6.23,6.23,0,0,0-1.93-3.65,8.58,8.58,0,0,0-4.23-1.74,44.23,44.23,0,0,0-7.23-.48H1510a43.85,43.85,0,0,0-7.32.48,9.09,9.09,0,0,0-4.23,1.74,6,6,0,0,0-2,3.65,31.91,31.91,0,0,0-.48,6.07v31.59a31.49,31.49,0,0,0,.48,6.16,6,6,0,0,0,2,3.56,9.09,9.09,0,0,0,4.23,1.74,43.85,43.85,0,0,0,7.32.48h22.92a44.23,44.23,0,0,0,7.23-.48,8.58,8.58,0,0,0,4.23-1.74,6.16,6.16,0,0,0,1.93-3.56,31.49,31.49,0,0,0,.48-6.16Z" transform="translate(-220.7 -457.08)"/><path class="cls-1" d="M1673.3,533.16a31.91,31.91,0,0,0-.48-6.07,6.05,6.05,0,0,0-2-3.65,9.14,9.14,0,0,0-4.24-1.74,43.85,43.85,0,0,0-7.32-.48h-14.45q-9.63,0-13.67,3.85t-4,11.94V596q0,3.66-3.86,3.66h-20.41q-4.05,0-4-3.66V502q0-3.66,4-3.66H1620c2.7,0,4,1.22,4,3.66v13.87q5-17.54,27.93-17.53h21q15,0,21.86,6.55t6.83,21V596q0,3.66-3.85,3.66h-20.41q-4,0-4-3.66Z" transform="translate(-220.7 -457.08)"/></svg>